# xmcd CD database file
#
# Track frame offsets:
#	150
#	19939
#	37171
#	57372
#	76675
#	86812
#	100895
#	109603
#	125391
#	137426
#	152359
#	168791
#	189346
#	208579
#	231799
#	248031
#	268419
#	283580
#
# Disc length: 4018 seconds
#
# Revision: 4
# Processed by: cddbd v1.5.2PL0 Copyright (c) Steve Scherf et al.
# Submitted via: jetAudio 5
#
DISCID=ec0fb012
DTITLE=Vários - Voz and Guitarra II
DYEAR=1900
DGENRE=
TTITLE0=Só - Paulo Gonzo
TTITLE1=Gritos mudos - Tim
TTITLE2=Porque não me vês - Xana e Flak
TTITLE3=Mestiçagem - José Medeiros
TTITLE4=Poema - Vitorino
TTITLE5=A morte do artista - Nuno Guerreiro
TTITLE6=O meu amor existe - Jorge Palma
TTITLE7=Mágoas Tamanhas - Minela e Moz Carrapa
TTITLE8=As certezas do meus mais brilhante amor - Sérgio Godinho
TTITLE9=Zorro - Luís Represas, João Gile e Rui Veloso
TTITLE10=Os homens do largo - Janita Salomé e Pedro Jóia
TTITLE11=Menina dos olhos tristes - José Medeiros
TTITLE12=Queda de um anjo - Miguel Ângelo
TTITLE13=Aqui dentro de casa - Filipa Pais e Jorge Palma
TTITLE14=E depois do adeus - Vozes da Rádio
TTITLE15=Mágoa das pedras - Carlos Tê, João Monge e José Soares Martins
TTITLE16=Holandês voador - Xana e Flak
TTITLE17=Tejo - Paulo Costa
EXTD=
EXTT0=
EXTT1=
EXTT2=
EXTT3=
EXTT4=
EXTT5=
EXTT6=
EXTT7=
EXTT8=
EXTT9=
EXTT10=
EXTT11=
EXTT12=
EXTT13=
EXTT14=
EXTT15=
EXTT16=
EXTT17=
PLAYORDER=
